<svg width="4230" height="6360" xmlns="http://www.w3.org/2000/svg" preserveAspectRatio="xMidYMid meet">
 <g>
  <rect fill="none" id="canvas_background" height="402" width="582" y="-1" x="-1"/>
 </g>
 <g fill="#010101" id="layer2">
  <path id="svg_5" d="m1892,6350c-12,-5 -60,-13 -105,-16c-62,-6 -92,-13 -122,-32c-74,-47 -116,-86 -144,-137c-58,-102 -98,-182 -130,-260c-18,-44 -37,-89 -42,-100c-5,-11 -31,-78 -58,-150c-121,-322 -247,-520 -512,-804c-160,-172 -190,-208 -235,-284c-75,-128 -105,-280 -119,-607c-13,-308 -76,-553 -214,-827c-73,-146 -101,-208 -101,-225c0,-8 -4,-18 -9,-23c-26,-28 -69,-230 -76,-360c-18,-310 7,-582 72,-800c33,-106 62,-195 82,-244c12,-28 31,-75 42,-104c66,-162 195,-422 257,-516c159,-241 502,-499 956,-717c244,-117 197,-109 686,-109c502,0 426,-15 770,149c286,136 627,381 783,561c79,91 115,149 197,314c111,220 161,337 218,501c74,212 112,374 112,470c0,52 5,82 15,96c21,28 21,400 0,428c-10,13 -15,43 -15,81c0,34 -6,81 -14,106c-8,24 -22,71 -31,104c-10,33 -21,64 -26,70c-5,5 -9,15 -9,22c0,8 -38,91 -85,185c-47,94 -85,175 -85,180c0,6 -6,24 -14,41c-74,170 -121,433 -130,734c-7,209 -31,329 -88,447c-40,84 -94,153 -235,302c-141,150 -173,187 -263,309c-95,128 -183,290 -245,450c-14,39 -37,97 -50,130c-13,33 -36,91 -50,128c-46,120 -158,342 -191,378c-9,10 -46,37 -82,62c-62,41 -74,45 -149,51c-46,3 -94,11 -109,16c-32,13 -421,12 -452,0zm-16,-1784c6,-16 -47,-134 -157,-351c-152,-299 -243,-444 -359,-568c-128,-137 -322,-246 -584,-326c-147,-46 -180,-42 -215,27c-27,51 51,313 143,477c143,257 335,443 609,589c154,82 360,150 487,159c25,2 51,4 58,5c7,1 15,-4 18,-12zm679,-13c288,-64 601,-245 789,-457c156,-176 262,-375 321,-603c31,-119 31,-134 -1,-172c-34,-40 -70,-41 -200,0c-323,99 -522,227 -671,430c-134,183 -445,772 -429,814c6,17 85,12 191,-12z"/>
 </g>
</svg>